<svg width="12" height="22" viewBox="0 0 12 22" fill="none" xmlns="http://www.w3.org/2000/svg">
<path fill-rule="evenodd" clip-rule="evenodd" d="M2.09039 12.0839C2.11896 12.0573 2.15291 12.0362 2.19029 12.0218C2.22767 12.0074 2.26774 12 2.30821 12C2.34867 12 2.38874 12.0074 2.42612 12.0218C2.4635 12.0362 2.49745 12.0573 2.52603 12.0839L6.00008 15.31L9.47413 12.0839C9.50274 12.0574 9.5367 12.0363 9.57407 12.0219C9.61145 12.0075 9.6515 12.0001 9.69196 12.0001C9.73241 12.0001 9.77247 12.0075 9.80984 12.0219C9.84721 12.0363 9.88117 12.0574 9.90978 12.0839C9.93838 12.1105 9.96107 12.142 9.97655 12.1767C9.99203 12.2114 10 12.2486 10 12.2862C10 12.3237 9.99203 12.3609 9.97655 12.3956C9.96107 12.4303 9.93838 12.4618 9.90978 12.4884L6.2179 15.9161C6.18932 15.9427 6.15537 15.9638 6.118 15.9782C6.08062 15.9926 6.04055 16 6.00008 16C5.95961 16 5.91954 15.9926 5.88217 15.9782C5.84479 15.9638 5.81084 15.9427 5.78226 15.9161L2.09039 12.4884C2.06173 12.4619 2.039 12.4303 2.02349 12.3956C2.00798 12.3609 2 12.3237 2 12.2862C2 12.2486 2.00798 12.2114 2.02349 12.1767C2.039 12.142 2.06173 12.1105 2.09039 12.0839Z" fill="#003154"/>
<path fill-rule="evenodd" clip-rule="evenodd" d="M2.09039 12.0839C2.11896 12.0573 2.15291 12.0362 2.19029 12.0218C2.22767 12.0074 2.26774 12 2.30821 12C2.34867 12 2.38874 12.0074 2.42612 12.0218C2.4635 12.0362 2.49745 12.0573 2.52603 12.0839L6.00008 15.31L9.47413 12.0839C9.50274 12.0574 9.5367 12.0363 9.57407 12.0219C9.61145 12.0075 9.6515 12.0001 9.69196 12.0001C9.73241 12.0001 9.77247 12.0075 9.80984 12.0219C9.84721 12.0363 9.88117 12.0574 9.90978 12.0839C9.93838 12.1105 9.96107 12.142 9.97655 12.1767C9.99203 12.2114 10 12.2486 10 12.2862C10 12.3237 9.99203 12.3609 9.97655 12.3956C9.96107 12.4303 9.93838 12.4618 9.90978 12.4884L6.2179 15.9161C6.18932 15.9427 6.15537 15.9638 6.118 15.9782C6.08062 15.9926 6.04055 16 6.00008 16C5.95961 16 5.91954 15.9926 5.88217 15.9782C5.84479 15.9638 5.81084 15.9427 5.78226 15.9161L2.09039 12.4884C2.06173 12.4619 2.039 12.4303 2.02349 12.3956C2.00798 12.3609 2 12.3237 2 12.2862C2 12.2486 2.00798 12.2114 2.02349 12.1767C2.039 12.142 2.06173 12.1105 2.09039 12.0839Z" fill="#003154"/>
<path fill-rule="evenodd" clip-rule="evenodd" d="M2.09039 12.0839C2.11896 12.0573 2.15291 12.0362 2.19029 12.0218C2.22767 12.0074 2.26774 12 2.30821 12C2.34867 12 2.38874 12.0074 2.42612 12.0218C2.4635 12.0362 2.49745 12.0573 2.52603 12.0839L6.00008 15.31L9.47413 12.0839C9.50274 12.0574 9.5367 12.0363 9.57407 12.0219C9.61145 12.0075 9.6515 12.0001 9.69196 12.0001C9.73241 12.0001 9.77247 12.0075 9.80984 12.0219C9.84721 12.0363 9.88117 12.0574 9.90978 12.0839C9.93838 12.1105 9.96107 12.142 9.97655 12.1767C9.99203 12.2114 10 12.2486 10 12.2862C10 12.3237 9.99203 12.3609 9.97655 12.3956C9.96107 12.4303 9.93838 12.4618 9.90978 12.4884L6.2179 15.9161C6.18932 15.9427 6.15537 15.9638 6.118 15.9782C6.08062 15.9926 6.04055 16 6.00008 16C5.95961 16 5.91954 15.9926 5.88217 15.9782C5.84479 15.9638 5.81084 15.9427 5.78226 15.9161L2.09039 12.4884C2.06173 12.4619 2.039 12.4303 2.02349 12.3956C2.00798 12.3609 2 12.3237 2 12.2862C2 12.2486 2.00798 12.2114 2.02349 12.1767C2.039 12.142 2.06173 12.1105 2.09039 12.0839Z" stroke="#003154" stroke-width="0.5"/>
<path fill-rule="evenodd" clip-rule="evenodd" d="M2.09039 12.0839C2.11896 12.0573 2.15291 12.0362 2.19029 12.0218C2.22767 12.0074 2.26774 12 2.30821 12C2.34867 12 2.38874 12.0074 2.42612 12.0218C2.4635 12.0362 2.49745 12.0573 2.52603 12.0839L6.00008 15.31L9.47413 12.0839C9.50274 12.0574 9.5367 12.0363 9.57407 12.0219C9.61145 12.0075 9.6515 12.0001 9.69196 12.0001C9.73241 12.0001 9.77247 12.0075 9.80984 12.0219C9.84721 12.0363 9.88117 12.0574 9.90978 12.0839C9.93838 12.1105 9.96107 12.142 9.97655 12.1767C9.99203 12.2114 10 12.2486 10 12.2862C10 12.3237 9.99203 12.3609 9.97655 12.3956C9.96107 12.4303 9.93838 12.4618 9.90978 12.4884L6.2179 15.9161C6.18932 15.9427 6.15537 15.9638 6.118 15.9782C6.08062 15.9926 6.04055 16 6.00008 16C5.95961 16 5.91954 15.9926 5.88217 15.9782C5.84479 15.9638 5.81084 15.9427 5.78226 15.9161L2.09039 12.4884C2.06173 12.4619 2.039 12.4303 2.02349 12.3956C2.00798 12.3609 2 12.3237 2 12.2862C2 12.2486 2.00798 12.2114 2.02349 12.1767C2.039 12.142 2.06173 12.1105 2.09039 12.0839Z" stroke="#003154" stroke-width="0.5"/>
</svg>
