<svg width="12" height="20" viewBox="0 0 12 20" fill="none" xmlns="http://www.w3.org/2000/svg">
<path fill-rule="evenodd" clip-rule="evenodd" d="M5.58392 14.9096C5.55732 14.881 5.53621 14.8471 5.52181 14.8097C5.50741 14.7723 5.5 14.7323 5.5 14.6918C5.5 14.6513 5.50741 14.6113 5.52181 14.5739C5.53621 14.5365 5.55732 14.5026 5.58392 14.474L8.80995 10.9999L5.58392 7.52587C5.55736 7.49726 5.53629 7.4633 5.52192 7.42593C5.50755 7.38855 5.50015 7.3485 5.50015 7.30804C5.50015 7.26759 5.50755 7.22753 5.52192 7.19016C5.53629 7.15279 5.55736 7.11883 5.58392 7.09022C5.61048 7.06162 5.642 7.03893 5.6767 7.02345C5.7114 7.00797 5.74859 7 5.78615 7C5.82371 7 5.8609 7.00797 5.8956 7.02345C5.9303 7.03893 5.96183 7.06162 5.98839 7.09022L9.41608 10.7821C9.44268 10.8107 9.46379 10.8446 9.47819 10.882C9.49259 10.9194 9.5 10.9595 9.5 10.9999C9.5 11.0404 9.49259 11.0805 9.47819 11.1178C9.46379 11.1552 9.44268 11.1892 9.41608 11.2177L5.98839 14.9096C5.96185 14.9383 5.93033 14.961 5.89563 14.9765C5.86093 14.992 5.82372 15 5.78615 15C5.74858 15 5.71138 14.992 5.67667 14.9765C5.64197 14.961 5.61045 14.9383 5.58392 14.9096Z" fill="#003154"/>
<path fill-rule="evenodd" clip-rule="evenodd" d="M5.58392 14.9096C5.55732 14.881 5.53621 14.8471 5.52181 14.8097C5.50741 14.7723 5.5 14.7323 5.5 14.6918C5.5 14.6513 5.50741 14.6113 5.52181 14.5739C5.53621 14.5365 5.55732 14.5026 5.58392 14.474L8.80995 10.9999L5.58392 7.52587C5.55736 7.49726 5.53629 7.4633 5.52192 7.42593C5.50755 7.38855 5.50015 7.3485 5.50015 7.30804C5.50015 7.26759 5.50755 7.22753 5.52192 7.19016C5.53629 7.15279 5.55736 7.11883 5.58392 7.09022C5.61048 7.06162 5.642 7.03893 5.6767 7.02345C5.7114 7.00797 5.74859 7 5.78615 7C5.82371 7 5.8609 7.00797 5.8956 7.02345C5.9303 7.03893 5.96183 7.06162 5.98839 7.09022L9.41608 10.7821C9.44268 10.8107 9.46379 10.8446 9.47819 10.882C9.49259 10.9194 9.5 10.9595 9.5 10.9999C9.5 11.0404 9.49259 11.0805 9.47819 11.1178C9.46379 11.1552 9.44268 11.1892 9.41608 11.2177L5.98839 14.9096C5.96185 14.9383 5.93033 14.961 5.89563 14.9765C5.86093 14.992 5.82372 15 5.78615 15C5.74858 15 5.71138 14.992 5.67667 14.9765C5.64197 14.961 5.61045 14.9383 5.58392 14.9096Z" fill="#003154"/>
<path fill-rule="evenodd" clip-rule="evenodd" d="M5.58392 14.9096C5.55732 14.881 5.53621 14.8471 5.52181 14.8097C5.50741 14.7723 5.5 14.7323 5.5 14.6918C5.5 14.6513 5.50741 14.6113 5.52181 14.5739C5.53621 14.5365 5.55732 14.5026 5.58392 14.474L8.80995 10.9999L5.58392 7.52587C5.55736 7.49726 5.53629 7.4633 5.52192 7.42593C5.50755 7.38855 5.50015 7.3485 5.50015 7.30804C5.50015 7.26759 5.50755 7.22753 5.52192 7.19016C5.53629 7.15279 5.55736 7.11883 5.58392 7.09022C5.61048 7.06162 5.642 7.03893 5.6767 7.02345C5.7114 7.00797 5.74859 7 5.78615 7C5.82371 7 5.8609 7.00797 5.8956 7.02345C5.9303 7.03893 5.96183 7.06162 5.98839 7.09022L9.41608 10.7821C9.44268 10.8107 9.46379 10.8446 9.47819 10.882C9.49259 10.9194 9.5 10.9595 9.5 10.9999C9.5 11.0404 9.49259 11.0805 9.47819 11.1178C9.46379 11.1552 9.44268 11.1892 9.41608 11.2177L5.98839 14.9096C5.96185 14.9383 5.93033 14.961 5.89563 14.9765C5.86093 14.992 5.82372 15 5.78615 15C5.74858 15 5.71138 14.992 5.67667 14.9765C5.64197 14.961 5.61045 14.9383 5.58392 14.9096Z" stroke="#003154" stroke-width="0.5"/>
<path fill-rule="evenodd" clip-rule="evenodd" d="M5.58392 14.9096C5.55732 14.881 5.53621 14.8471 5.52181 14.8097C5.50741 14.7723 5.5 14.7323 5.5 14.6918C5.5 14.6513 5.50741 14.6113 5.52181 14.5739C5.53621 14.5365 5.55732 14.5026 5.58392 14.474L8.80995 10.9999L5.58392 7.52587C5.55736 7.49726 5.53629 7.4633 5.52192 7.42593C5.50755 7.38855 5.50015 7.3485 5.50015 7.30804C5.50015 7.26759 5.50755 7.22753 5.52192 7.19016C5.53629 7.15279 5.55736 7.11883 5.58392 7.09022C5.61048 7.06162 5.642 7.03893 5.6767 7.02345C5.7114 7.00797 5.74859 7 5.78615 7C5.82371 7 5.8609 7.00797 5.8956 7.02345C5.9303 7.03893 5.96183 7.06162 5.98839 7.09022L9.41608 10.7821C9.44268 10.8107 9.46379 10.8446 9.47819 10.882C9.49259 10.9194 9.5 10.9595 9.5 10.9999C9.5 11.0404 9.49259 11.0805 9.47819 11.1178C9.46379 11.1552 9.44268 11.1892 9.41608 11.2177L5.98839 14.9096C5.96185 14.9383 5.93033 14.961 5.89563 14.9765C5.86093 14.992 5.82372 15 5.78615 15C5.74858 15 5.71138 14.992 5.67667 14.9765C5.64197 14.961 5.61045 14.9383 5.58392 14.9096Z" stroke="#003154" stroke-width="0.5"/>
</svg>
