<svg width="127" height="32" viewBox="0 0 127 32" fill="none" xmlns="http://www.w3.org/2000/svg">
<path fill-rule="evenodd" clip-rule="evenodd" d="M25.3707 0H0V23.8838H1.68325L4.50818 6.78551L18.7743 1.77588L23.6338 16.1443L22.3555 23.8838H25.3707V0ZM81.684 5.39608H85.8311C88.6414 5.39608 90.7394 5.93421 92.125 7.0105C93.5155 8.0819 94.2083 9.7208 94.2083 11.9125C94.2083 14.1336 93.5448 15.7431 92.2177 16.7509C90.8906 17.7538 88.7634 18.2577 85.8311 18.2577H81.684V5.39608ZM68.1497 18.3898L70.272 23.2478C75.1229 23.2478 79.9737 23.2517 84.8255 23.2555H84.828H84.8306H84.8331H84.8357C90.9065 23.2604 96.9787 23.2652 103.054 23.2625L105.167 18.6344H117.559L119.579 23.2625H126.912L115.754 0.440252H108.055L100.732 14.5396C100.868 13.7569 100.932 12.9301 100.932 12.0642C100.932 9.77462 100.488 7.76881 99.5996 6.04185C98.7116 4.3149 97.4431 2.98911 95.7891 2.05469C94.7255 1.45784 93.5302 1.02732 92.1884 0.763141C90.8467 0.498961 89.0561 0.366872 86.8167 0.366872H75.2876V18.473L66.3493 0.195641H58.6503L51.4391 14.0798C51.1171 13.3851 50.6244 12.8665 49.9608 12.5289C49.1558 12.118 47.9751 11.9027 46.404 11.8832C48.4922 11.5309 50.0486 10.8754 51.083 9.9116C52.1222 8.94783 52.6394 7.68074 52.6394 6.09566C52.6394 5.03405 52.3857 4.08496 51.8782 3.25818C51.3757 2.43139 50.6536 1.79051 49.7266 1.33554C49.0143 0.98819 48.1849 0.743569 47.2335 0.59191C46.2869 0.440251 44.8964 0.366872 43.0717 0.366872H30.6205V23.2478H36.9144V14.5152H40.7542C42.7448 14.5152 43.9987 14.706 44.5207 15.0876C45.0428 15.4741 45.3941 16.2862 45.5795 17.5239L46.0137 20.562L46.0345 20.7352C46.1318 21.5519 46.2497 22.5403 46.6138 23.2478H53.5273L55.7522 18.3898H68.1497ZM115.471 14.2314H107.289L111.582 5.45968L115.471 14.2314ZM66.0663 13.9819H57.8843L62.1778 5.21017L66.0663 13.9819ZM36.9144 10.1317V4.79433L40.9542 4.78945C42.9692 4.78945 44.3012 4.98023 44.9599 5.36183C45.6185 5.74831 45.9503 6.42833 45.9503 7.39699C45.9503 8.40479 45.5941 9.10928 44.8818 9.51533C44.1695 9.92628 42.8619 10.1317 40.9542 10.1317H36.9144ZM77.9027 29.0011C77.7466 29.1674 77.6637 29.4218 77.6637 29.7447C77.6637 29.9893 77.7222 30.322 77.893 30.5176C77.971 30.6155 78.1516 30.7623 78.4785 30.7623C78.6639 30.7623 78.82 30.7182 78.9566 30.5959C79.2396 30.3415 79.2493 29.9159 79.2493 29.7251C79.2493 29.4952 79.2152 29.2016 79.0249 28.9913C78.859 28.8103 78.6687 28.776 78.4833 28.776C78.3126 28.7809 78.0881 28.8005 77.9027 29.0011ZM79.5762 27.7389C79.2981 27.871 79.103 27.915 78.6004 27.9982L78.5906 27.9999C78.4508 28.024 78.2797 28.0535 78.1272 28.1205C77.9906 28.1841 77.8686 28.2819 77.7808 28.3944C77.6637 28.5412 77.5661 28.776 77.5368 29.0157H77.5466C77.7759 28.5118 78.2394 28.4238 78.5712 28.4238C78.8054 28.4238 79.0883 28.4629 79.3372 28.6977C79.5226 28.869 79.7128 29.187 79.7128 29.7202C79.7128 30.1067 79.6055 30.4638 79.4103 30.7036C79.2201 30.9384 78.9176 31.1145 78.4345 31.1145C78.2004 31.1145 77.8881 31.0607 77.6149 30.7867C77.2489 30.4149 77.1953 29.867 77.1953 29.5049C77.1953 28.6195 77.449 28.2134 77.6246 28.0226C77.9174 27.7095 78.3028 27.6361 78.5956 27.5823C78.6939 27.5633 78.7796 27.547 78.8554 27.5326C79.2273 27.4622 79.3606 27.4369 79.5713 27.3475V27.7389H79.5762ZM6.26954 28.9375C6.34761 29.0696 6.39151 29.2653 6.39639 29.4316V29.4365H4.91806C4.92294 29.2457 4.99125 29.0451 5.10347 28.9033C5.22544 28.7516 5.43035 28.6244 5.69382 28.6244C6.01583 28.6244 6.1866 28.8005 6.26954 28.9375ZM6.37688 30.914C6.60131 30.7525 6.7428 30.5569 6.81599 30.322L6.42079 30.2389C6.38664 30.3367 6.32809 30.4492 6.25491 30.5275C6.16221 30.6351 5.98656 30.7623 5.69382 30.7623C5.36205 30.7623 5.1181 30.6107 4.98637 30.2878C4.92294 30.1312 4.89366 29.9404 4.89854 29.7594H6.86478V29.6616C6.86478 29.2262 6.70377 28.2869 5.69382 28.2869C4.84 28.2869 4.43504 28.9962 4.43504 29.7203C4.43504 30.1019 4.52286 30.4443 4.76193 30.7183C4.99612 30.9874 5.29862 31.1146 5.67918 31.1146C5.94265 31.1146 6.16221 31.0559 6.37688 30.914ZM2.30772 28.6782V28.3455H0.204879V28.6782H1.05383V31.0607H1.45878V28.6782H2.30772ZM9.55789 28.3455L10.1238 29.2848L10.7142 28.3455H11.1192L10.3336 29.5735L11.2607 31.0607H10.7728L10.0946 29.9648L9.38713 31.0607H8.98217L9.88478 29.6615L9.06999 28.3455H9.55789ZM14.027 29.4805V28.3455H13.6221V31.0607H14.027V29.8132H15.2809V31.0607H15.6859V28.3455H15.2809V29.4805H14.027ZM20.2136 29.7056C20.2136 28.8152 19.7842 28.644 19.4573 28.644C19.1353 28.644 18.7011 28.8152 18.7011 29.7056C18.7011 30.596 19.1304 30.7672 19.4573 30.7672C19.7842 30.7624 20.2136 30.596 20.2136 29.7056ZM19.4573 28.2918C20.1599 28.2918 20.6771 28.8152 20.6771 29.7007C20.6771 30.5911 20.155 31.1097 19.4573 31.1097C18.7548 31.1097 18.2376 30.5862 18.2376 29.7007C18.2376 28.8152 18.7596 28.2918 19.4573 28.2918ZM25.0829 31.0607V28.3455V28.3406H23.4533L23.4484 28.6439C23.4191 30.0089 23.3606 30.2779 23.2825 30.4198C23.1801 30.6057 22.9947 30.6987 22.8727 30.7036H22.8288V31.0558H22.8483C23.0337 31.0558 23.4533 31.0167 23.6338 30.4883C23.7168 30.2486 23.7607 29.8866 23.8046 28.6733H24.6779V31.0607H25.0829ZM29.6105 29.7056C29.6105 28.8152 29.1812 28.644 28.8543 28.644C28.5323 28.644 28.0981 28.8152 28.0981 29.7056C28.0981 30.596 28.5274 30.7672 28.8543 30.7672C29.1812 30.7624 29.6105 30.596 29.6105 29.7056ZM28.8592 28.2918C29.5618 28.2918 30.0789 28.8152 30.0789 29.7007C30.0789 30.5911 29.5569 31.1097 28.8592 31.1097C28.1566 31.1097 27.6394 30.5862 27.6394 29.7007C27.6346 28.8152 28.1566 28.2918 28.8592 28.2918ZM34.2699 28.6782V28.3455H32.6306V31.0607H33.0355V28.6782H34.2699ZM37.0705 28.3455V29.9746C37.0705 30.0958 37.0682 30.1336 37.0635 30.2092C37.0615 30.2434 37.0589 30.2854 37.0558 30.3464C37.1287 30.1787 37.2054 30.0715 37.2792 29.9683L37.3096 29.9257L38.3244 28.5803V28.3455H38.7293V31.0607H38.3244V29.456C38.3244 29.3582 38.3293 29.1968 38.3439 29.0696C38.3244 29.1185 38.2853 29.2065 38.0999 29.4463L37.0705 30.7965V31.0558H36.6655V28.3406H37.0705V28.3455ZM41.7641 29.094V28.3455H41.3592V29.0304C41.3592 29.3386 41.3592 29.642 41.5982 29.8181C41.7885 29.9551 42.0617 29.9551 42.2374 29.9551C42.4813 29.9551 42.6326 29.9404 42.8863 29.911V31.0558H43.2913V28.3406H42.8863V29.5881C42.7253 29.6077 42.4862 29.6273 42.3008 29.6273C42.1154 29.6273 41.9349 29.6273 41.8373 29.5099C41.7576 29.409 41.7609 29.2611 41.7633 29.147V29.1469C41.7637 29.1283 41.7641 29.1105 41.7641 29.094ZM47.8092 29.4316C47.8043 29.2653 47.7604 29.0696 47.6823 28.9375C47.5994 28.8005 47.4286 28.6244 47.1115 28.6244C46.848 28.6244 46.6431 28.7516 46.5211 28.9033C46.4089 29.0451 46.3406 29.2457 46.3357 29.4365H47.8092V29.4316ZM48.2288 30.322C48.1556 30.5569 48.0141 30.7525 47.7896 30.914C47.575 31.0559 47.3554 31.1146 47.0919 31.1146C46.7114 31.1146 46.4089 30.9874 46.1747 30.7183C45.9356 30.4443 45.8478 30.1019 45.8478 29.7203C45.8478 28.9962 46.2528 28.2869 47.1066 28.2869C48.1165 28.2869 48.2775 29.2262 48.2775 29.6616V29.7594H46.3113C46.3064 29.9404 46.3357 30.1312 46.3991 30.2878C46.5309 30.6107 46.7748 30.7623 47.1066 30.7623C47.3993 30.7623 47.575 30.6351 47.6677 30.5275C47.7409 30.4492 47.7994 30.3367 47.8336 30.2389L48.2288 30.322ZM52.2441 28.8837C52.3124 28.9865 52.371 29.143 52.3905 29.2947L52.7808 29.2311C52.7467 29.0354 52.6588 28.7859 52.5027 28.6098C52.3124 28.3945 52.0636 28.3016 51.766 28.3016C51.3318 28.3016 51.0585 28.4875 50.8731 28.7419C50.6682 29.0256 50.5902 29.3534 50.5902 29.7154C50.5902 30.1753 50.7316 30.6107 50.9951 30.8553C51.1512 30.9972 51.3952 31.1195 51.7367 31.1195C52.0295 31.1195 52.2783 31.0265 52.4686 30.8308C52.6198 30.6694 52.7369 30.4297 52.776 30.1704L52.3954 30.1019C52.3759 30.2535 52.3173 30.4199 52.2197 30.5422C52.0978 30.6987 51.9465 30.7672 51.7465 30.7672C51.4781 30.7672 51.3171 30.6254 51.2293 30.4933C51.1952 30.4492 51.0537 30.2291 51.0537 29.7154C51.0537 29.4953 51.0829 29.1871 51.2293 28.9473C51.3464 28.7565 51.5172 28.644 51.7514 28.644C52.0148 28.644 52.1709 28.7761 52.2441 28.8837ZM56.04 29.4805C56.3962 29.4805 56.5767 29.4071 56.6938 28.9032C56.6984 28.8843 56.7028 28.8648 56.7074 28.845C56.737 28.7156 56.7702 28.5702 56.8548 28.4727C56.9719 28.3357 57.1427 28.3308 57.2256 28.3308C57.2655 28.3308 57.3014 28.3349 57.3405 28.3393L57.3406 28.3393L57.3525 28.3406V28.6586C57.3359 28.6553 57.3148 28.6565 57.2953 28.6576C57.2861 28.6581 57.2773 28.6586 57.2695 28.6586C57.211 28.6635 57.1476 28.6733 57.0988 28.7369C57.053 28.7919 57.0287 28.9159 57.0178 28.9714L57.0158 28.9815L56.9768 29.1723C56.9182 29.4707 56.7475 29.6028 56.567 29.6322V29.6419C56.8255 29.6615 56.928 29.8376 56.9914 30.0088C57.0395 30.142 57.0747 30.2611 57.1046 30.3622C57.1383 30.4766 57.1653 30.5678 57.1964 30.6302C57.2451 30.728 57.2939 30.7427 57.3964 30.7427C57.4305 30.7427 57.4598 30.7427 57.494 30.7378V31.0607C57.4354 31.0705 57.3769 31.0705 57.3183 31.0705C56.8945 31.0705 56.8379 30.8887 56.7401 30.5753L56.7328 30.5519C56.7063 30.4685 56.6849 30.3995 56.6669 30.3415C56.612 30.1648 56.5891 30.0911 56.5523 30.0284C56.445 29.8425 56.2889 29.7985 56.0693 29.7985H55.6741V31.0509H55.2691V28.3357H55.6741V29.4707H56.04V29.4805ZM60.9141 28.644C61.241 28.644 61.6703 28.8152 61.6703 29.7056C61.6703 30.596 61.241 30.7624 60.9141 30.7672C60.5872 30.7672 60.1578 30.596 60.1578 29.7056C60.1578 28.8152 60.5921 28.644 60.9141 28.644ZM62.1387 29.7007C62.1387 28.8152 61.6215 28.2918 60.9189 28.2918C60.2164 28.2918 59.6992 28.8152 59.6992 29.7007C59.6992 30.5862 60.2164 31.1097 60.9189 31.1097C61.6166 31.1097 62.1387 30.5911 62.1387 29.7007ZM66.442 29.4316C66.4371 29.2653 66.3932 29.0696 66.3151 28.9375C66.2322 28.8005 66.0614 28.6244 65.7443 28.6244C65.4808 28.6244 65.2759 28.7516 65.1539 28.9033C65.0417 29.0451 64.9734 29.2457 64.9685 29.4365H66.442V29.4316ZM66.8616 30.322C66.7884 30.5569 66.6469 30.7525 66.4225 30.914C66.2078 31.0559 65.9882 31.1146 65.7248 31.1146C65.3442 31.1146 65.0417 30.9874 64.8075 30.7183C64.5684 30.4443 64.4806 30.1019 64.4806 29.7203C64.4806 28.9962 64.8856 28.2869 65.7394 28.2869C66.7493 28.2869 66.9104 29.2262 66.9104 29.6616V29.7594H64.9441C64.9392 29.9404 64.9685 30.1312 65.032 30.2878C65.1637 30.6107 65.4076 30.7623 65.7394 30.7623C66.0321 30.7623 66.2078 30.6351 66.3005 30.5275C66.3737 30.4492 66.4322 30.3367 66.4664 30.2389L66.8616 30.322ZM73.5848 28.644C73.9117 28.644 74.341 28.8152 74.341 29.7056C74.341 30.596 73.9117 30.7624 73.5848 30.7672C73.2628 30.7672 72.8335 30.596 72.8335 29.7056C72.8335 28.8152 73.2628 28.644 73.5848 28.644ZM74.8094 29.7007C74.8094 28.8152 74.2923 28.2918 73.5897 28.2918C72.8871 28.2918 72.3651 28.8152 72.3699 29.7007C72.3699 30.5862 72.8871 31.1097 73.5897 31.1097C74.2874 31.1097 74.8094 30.5911 74.8094 29.7007ZM83.2696 28.644C83.5965 28.644 84.0259 28.8152 84.0259 29.7056C84.0259 30.596 83.5965 30.7624 83.2696 30.7672C82.9476 30.7672 82.5183 30.596 82.5183 29.7056C82.5183 28.8152 82.9476 28.644 83.2696 28.644ZM84.4943 29.7007C84.4943 28.8152 83.9771 28.2918 83.2745 28.2918C82.5719 28.2918 82.0499 28.8152 82.0548 29.7007C82.0548 30.5862 82.5719 31.1097 83.2745 31.1097C83.9722 31.1097 84.4943 30.5911 84.4943 29.7007ZM87.4509 29.9894C87.4509 30.1263 87.4704 30.3465 87.6412 30.5373C87.7924 30.7036 87.9876 30.7672 88.1583 30.7672C88.3145 30.7672 88.534 30.7036 88.6901 30.4492C88.817 30.2389 88.856 29.9453 88.856 29.7007C88.856 29.2457 88.7438 29.0305 88.695 28.9571C88.5487 28.7125 88.3291 28.6538 88.1632 28.6538C87.9729 28.6538 87.8119 28.7223 87.6753 28.8691C87.4802 29.0794 87.4509 29.2996 87.4509 29.4268V29.9894ZM87.0459 31.9463V28.3456H87.4167V28.8544L87.4216 28.8495C87.5289 28.5951 87.7826 28.2918 88.2266 28.2918C88.5633 28.2918 88.8072 28.4141 88.9731 28.6049C89.2073 28.8642 89.3147 29.2947 89.3147 29.6861C89.3147 30.0481 89.2268 30.4443 89.0268 30.7085C88.8853 30.9042 88.6316 31.1146 88.2266 31.1146C87.7973 31.1146 87.5729 30.8846 87.4606 30.6351H87.446V31.9463H87.0459ZM92.408 31.8043C92.5641 31.6575 92.6373 31.4863 92.6958 31.32L93.7643 28.3504H93.3935L92.6666 30.4394L91.964 28.3504H91.4956L92.447 31.0167L92.4129 31.1047C92.3299 31.3542 92.2616 31.4961 92.1592 31.5793C92.0567 31.6673 91.9542 31.6722 91.8567 31.6722C91.7493 31.6722 91.6761 31.6624 91.5639 31.6331V31.9462C91.6713 31.9853 91.7981 32 91.9054 32C92.1104 32 92.2665 31.9364 92.408 31.8043ZM96.6478 28.8201C96.6332 29.2212 96.5844 29.8817 96.4087 30.3464C96.3551 30.4834 96.2721 30.6644 96.238 30.728H97.4821V28.6733H96.6527L96.6478 28.8201ZM97.8871 28.3504V30.7329H98.1652V31.7945H97.7944V31.0656H95.994V31.7945H95.6232V30.7329H95.8233C95.916 30.6008 96.0038 30.4394 96.077 30.2486C96.2721 29.7496 96.2965 29.2163 96.3111 28.595L96.316 28.3504H97.8871ZM101.639 28.644C101.966 28.644 102.395 28.8152 102.395 29.7056C102.39 30.596 101.961 30.7624 101.639 30.7672C101.317 30.7672 100.888 30.596 100.888 29.7056C100.888 28.8152 101.317 28.644 101.639 28.644ZM102.859 29.7007C102.859 28.8152 102.342 28.2918 101.639 28.2918C100.936 28.2918 100.419 28.8152 100.419 29.7007C100.419 30.5862 100.936 31.1097 101.639 31.1097C102.337 31.1097 102.859 30.5911 102.859 29.7007ZM105.82 30.7329H106.669C106.864 30.7329 107.011 30.6791 107.094 30.6008C107.177 30.5225 107.221 30.3954 107.221 30.273C107.221 30.0823 107.118 29.9746 107.055 29.9257C106.923 29.823 106.733 29.8132 106.63 29.8132H105.82V30.7329ZM105.825 29.4805H106.577C106.703 29.4805 106.869 29.4707 106.986 29.3435C107.055 29.2701 107.094 29.1576 107.094 29.0353C107.094 28.9521 107.074 28.8543 106.977 28.776C106.864 28.6782 106.738 28.6782 106.616 28.6782H105.825V29.4805ZM106.616 28.3455C106.835 28.3455 107.064 28.3553 107.245 28.4629C107.347 28.5216 107.533 28.6684 107.533 28.9864C107.533 29.1674 107.479 29.3239 107.352 29.4414C107.308 29.4805 107.191 29.5783 107.001 29.6126V29.6224C107.196 29.6371 107.396 29.7251 107.504 29.8376C107.557 29.8914 107.684 30.0382 107.684 30.3024C107.684 30.5519 107.577 30.7672 107.401 30.9041C107.196 31.0656 106.962 31.0705 106.742 31.0705H105.41V28.3553H106.616V28.3455ZM110.821 29.8475C110.972 29.7692 111.216 29.7154 111.641 29.7154H111.982V29.8475C111.982 30.0383 111.904 30.2878 111.768 30.459C111.621 30.6351 111.387 30.7623 111.124 30.7623C110.938 30.7623 110.811 30.7134 110.738 30.6596C110.587 30.5569 110.543 30.4052 110.543 30.2976C110.543 30.1606 110.597 29.9649 110.821 29.8475ZM111.324 28.2967C110.733 28.2967 110.294 28.4532 110.177 29.0354L110.563 29.099C110.626 28.6587 111.094 28.6244 111.319 28.6244C111.509 28.6244 111.743 28.6342 111.88 28.8201C111.978 28.9473 111.987 29.1283 111.987 29.2702V29.3827H111.636C111.226 29.3827 110.797 29.3876 110.47 29.6127C110.309 29.7154 110.104 29.9307 110.104 30.2976C110.104 30.5813 110.231 30.7672 110.348 30.8749C110.48 30.9972 110.694 31.1146 111.041 31.1146C111.68 31.1146 111.914 30.7134 111.987 30.5569C111.992 30.689 112.007 30.8651 112.036 31.0608H112.461C112.407 30.8259 112.392 30.64 112.392 30.4933V29.4512C112.392 29.099 112.387 28.7272 112.095 28.4923C111.856 28.3015 111.504 28.2967 111.324 28.2967ZM115.525 28.3455V29.4805H116.778V28.3455H117.179V31.0607H116.778V29.8132H115.525V31.0607H115.12V28.3455H115.525ZM120.355 29.9746V28.3455V28.3406H119.95V31.0558H120.355V30.7965L121.384 29.4463C121.57 29.2065 121.609 29.1185 121.628 29.0696C121.614 29.1968 121.609 29.3582 121.609 29.456V31.0607H122.014V28.3455H121.609V28.5803L120.594 29.9257L120.564 29.9683C120.49 30.0715 120.413 30.1788 120.34 30.3464C120.343 30.2854 120.346 30.2435 120.348 30.2092C120.353 30.1336 120.355 30.0958 120.355 29.9746ZM126.532 29.4316C126.527 29.2653 126.483 29.0696 126.405 28.9375C126.322 28.8005 126.151 28.6244 125.829 28.6244C125.566 28.6244 125.361 28.7516 125.239 28.9033C125.126 29.0451 125.058 29.2457 125.053 29.4365H126.532V29.4316ZM126.951 30.322C126.878 30.5569 126.737 30.7525 126.512 30.914C126.302 31.0559 126.078 31.1146 125.814 31.1146C125.434 31.1146 125.131 30.9874 124.897 30.7183C124.658 30.4443 124.57 30.1019 124.57 29.7203C124.57 28.9962 124.975 28.2869 125.829 28.2869C126.839 28.2869 127 29.2262 127 29.6616V29.7594H125.034C125.029 29.9404 125.058 30.1312 125.122 30.2878C125.253 30.6107 125.497 30.7623 125.829 30.7623C126.122 30.7623 126.297 30.6351 126.39 30.5275C126.463 30.4492 126.522 30.3367 126.556 30.2389L126.951 30.322ZM3.63482 23.8838L5.83036 10.5965L8.76264 19.0454L7.96248 23.8838H3.63482ZM17.1057 18.4045L16.1982 23.8838H20.4039L21.5651 16.8488L17.1057 18.4045ZM9.91901 23.8839L10.4411 20.7284L15.0322 19.1286L14.2467 23.8839H9.91901Z" fill="#8F9090"/>
</svg>
