<svg width="131" height="26" viewBox="0 0 131 26" fill="none" xmlns="http://www.w3.org/2000/svg">
<path fill-rule="evenodd" clip-rule="evenodd" d="M2.83605 25.1219H5.30456V8.82742H9.84277V6.55228H5.30717V6.17839C5.30717 2.34142 8.60981 2.27513 9.34489 2.27513H9.84537V0H9.34489C5.2394 0 2.83605 2.5456 2.83605 6.17839V6.55228H0V8.82742H2.83605V25.1219ZM12.1471 25.1219H14.6156V14.1228C14.6156 10.3548 17.4516 8.79294 19.7872 8.65771V6.14657C17.5507 6.07763 15.5488 7.23376 14.5478 9.23577H14.48V6.55493H12.1444V25.1219H12.1471ZM30.0001 6.10945C24.5939 6.10945 20.4545 10.3203 20.4545 15.8517C20.4545 21.3857 24.6252 25.5621 30.0001 25.5621C35.3724 25.5621 39.5457 21.3857 39.5457 15.8517C39.5457 10.3203 35.4063 6.10945 30.0001 6.10945ZM30.0001 8.38458C34.1056 8.38458 37.0746 11.6435 37.0746 15.8543C37.0746 20.0626 34.1056 23.2896 30.0001 23.2896C25.8946 23.2896 22.9256 20.0652 22.9256 15.8543C22.9256 11.6435 25.8972 8.38458 30.0001 8.38458ZM41.6493 19.6568C41.6493 22.746 43.4192 25.5648 47.2223 25.5648C50.9603 25.5648 53.0951 23.0536 53.0951 19.6568C53.0951 16.1593 50.525 15.21 48.3562 14.4967C46.6541 13.9531 44.7851 13.2743 44.7851 11.137C44.7851 9.57519 45.7861 8.38724 47.5221 8.38724C49.0574 8.38724 50.1913 9.5089 50.1574 11.1715H52.6259C52.6598 8.32095 50.5901 6.1121 47.5873 6.1121C44.2846 6.1121 42.314 8.42171 42.314 11.3412C42.314 14.8706 45.1839 15.8915 47.0868 16.5358C48.8228 17.1457 50.624 17.7927 50.624 20.0652C50.624 21.7278 49.524 23.2896 47.4204 23.2896C45.2178 23.2896 43.9484 21.5581 44.1178 19.6568H41.6493ZM58.0661 25.1219H60.5346V8.82742H64.773V6.55228H60.5346V0H58.0661V6.55228H54.2629V8.82742H58.0661V25.1219ZM85.4646 16.7374C85.4985 11.9511 82.9961 6.1121 76.0859 6.1121C69.8794 6.1121 66.5741 11.2723 66.5741 15.8544C66.5741 21.4229 70.7135 25.5648 76.0859 25.5648C80.2252 25.5648 83.5618 23.0855 85.0293 19.0814H82.4591C81.3252 21.627 78.9558 23.2923 76.0859 23.2923C72.2488 23.2923 69.4441 20.4417 69.1443 16.74H85.4646V16.7374ZM69.1469 14.4622C69.7464 10.9328 72.5851 8.38459 76.0885 8.38459C79.2582 8.38459 82.0968 10.6942 82.7954 14.4622H69.1469ZM104.154 19.6887C102.854 22.0301 100.518 23.287 98.0131 23.287C94.0432 23.287 90.7379 20.0281 90.7379 15.7854C90.7379 11.678 93.7747 8.38459 98.0131 8.38459C98.8472 8.38459 102.319 8.51982 104.154 12.1871H106.925C105.489 8.51982 102.254 6.10946 98.0157 6.10946C91.6424 6.10946 88.272 11.3704 88.272 15.8199C88.272 20.6751 91.7754 25.5621 98.0157 25.5621C103.021 25.5621 105.658 22.4385 106.891 19.6887H104.154ZM119.406 6.10946C114 6.10946 109.86 10.3203 109.86 15.8517C109.86 19.6012 111.775 22.7275 114.682 24.3539C114.331 24.4925 113.969 24.6163 113.596 24.7269C118.489 26.5194 123.313 26.6493 127.317 23.6158C132.197 18.5909 132.236 11.7549 127.382 7.9736C127.26 7.90465 127.137 7.84631 127.015 7.79593C127.38 8.39786 127.693 9.02896 127.946 9.68392C129.309 13.2159 128.915 17.4082 125.349 21.0384C125.288 20.9776 125.466 20.6824 125.755 20.201C126.804 18.4568 129.322 14.2688 127.291 9.93583C127.044 9.29413 126.733 8.67629 126.371 8.09027C126.272 7.93117 126.168 7.77207 126.061 7.61562C125.701 7.62149 125.348 7.71167 125.004 7.87744C123.448 6.75749 121.524 6.10946 119.406 6.10946ZM125.901 9.87748H126.291L126.426 10.2673C126.053 11.2192 124.526 13.3379 122.654 14.4728C123.332 13.6879 124.022 12.8686 124.625 12.0254C125.117 11.3364 125.558 10.621 125.901 9.87748ZM123.238 9.49443C122.155 8.7883 120.851 8.38459 119.406 8.38459C115.301 8.38459 112.332 11.6435 112.332 15.8544C112.332 19.254 114.267 22.0107 117.173 22.9466C118.869 21.6114 120.113 19.6154 120.772 16.6287C121.174 13.6794 122.075 11.1236 123.238 9.49443ZM129.843 12.8474C129.622 12.6432 129.28 12.3064 129.077 12.0492L129.126 12.8898C129.164 12.9064 129.198 12.9217 129.231 12.936C129.642 13.1188 129.658 13.1258 130.216 13.1603C130.127 13.0867 130.083 13.053 130.051 13.0284C129.999 12.9882 129.979 12.9723 129.843 12.8474ZM130.324 15.2664C129.987 14.9611 129.541 14.5579 129.324 14.1308L129.171 14.8573C129.598 15.1384 129.859 15.2843 130.44 15.4407C130.451 15.4442 130.456 15.4313 130.462 15.4183C130.465 15.4118 130.468 15.4053 130.471 15.4009C130.426 15.3586 130.376 15.3137 130.324 15.2664ZM129.437 16.6207C129.218 16.3635 129.033 16.093 128.884 15.8119L128.665 16.443C129.241 17.0238 129.515 17.1855 130.216 17.3685C129.921 17.1325 129.661 16.8832 129.437 16.6207ZM125.133 19.7771C125.329 19.5657 125.501 19.3798 125.657 19.2432L125.941 18.0632C125.574 18.5788 124.556 19.5995 123.974 20.1838C123.882 20.2756 123.802 20.3566 123.736 20.4232C123.251 20.9138 122.753 21.3911 122.14 21.8498C123.578 21.4567 124.485 20.4771 125.133 19.7771ZM121.783 19.9353C124.275 19.1663 126.191 16.8647 126.804 16.0824L126.945 14.7831C126.249 15.6687 124.979 17.1563 124.213 17.9174C123.449 18.6757 122.646 19.3572 121.783 19.9353ZM122.417 17.3976C124.977 15.9366 126.561 13.5686 127.07 12.6538L126.872 11.6488C126.392 12.5133 125.404 13.9637 124.745 14.8414C124.082 15.7191 123.316 16.5862 122.417 17.3976Z" fill="#8F9090"/>
</svg>
