<svg width="163" height="22" viewBox="0 0 163 22" fill="none" xmlns="http://www.w3.org/2000/svg">
<g clip-path="url(#clip0_1526_2822)">
<path fill-rule="evenodd" clip-rule="evenodd" d="M24.0787 11.0418C24.0787 5.26997 27.9149 0 36.4853 0C44.974 0 49.0552 5.26997 49.0552 11.0418C49.0552 16.8137 44.974 22 36.4853 22C28.4863 22 24.0787 16.8137 24.0787 11.0418ZM37.5464 20.2434C39.4237 19.8251 40.4032 15.9772 40.2399 12.2966C39.9951 5.77188 37.4648 2.09126 35.7507 1.75666C33.6285 2.59316 33.0571 6.44106 33.2204 9.95437C33.3836 15.9772 35.5058 19.9924 37.5464 20.2434ZM53.7896 0.501983H62.5232V19.0723H68.4V21.4982H53.7896V0.501983ZM74.6029 16.0609H81.1327L82.357 21.4982H91.662L87.0912 0.501983H75.5007L70.8482 21.4982H73.3785C73.6234 20.7453 74.6029 16.0609 74.6029 16.0609ZM78.2759 3.26243L80.643 13.886H75.011L77.3781 3.26243H78.2759ZM113.945 0.501795H124.964C125.404 0.501795 125.863 0.489891 126.334 0.477694C128.919 0.410691 131.846 0.334845 133.779 2.1748C135.085 3.42955 135.575 5.18619 135.575 6.94285C135.493 10.4562 134.024 12.4638 131.575 13.6349L131.902 14.3041L136.473 21.4144H127.086L123.821 14.0531L122.678 13.9695V21.4144H113.945V0.501795ZM122.678 12.3801C123.168 12.4638 125.045 12.6311 125.045 12.6311C125.045 12.6311 126.841 10.2052 126.841 7.11016C126.841 5.77175 126.841 2.25845 122.678 2.25845V12.3801ZM97.2943 21.4982H106.028V0.501983H97.2943V21.4982ZM11.1007 0.501983C16.2429 0.501983 21.2219 1.00388 21.2219 6.77575C21.2219 14.2206 16.4061 15.8936 11.7536 15.8936C10.6109 15.8936 9.54984 15.81 8.73361 15.6427V21.4982H0V0.501983H11.1007ZM8.73361 13.7187C9.22335 13.8024 11.1007 13.9697 11.1007 13.9697C11.1007 13.9697 12.8964 11.7111 12.8964 7.77954C12.8964 6.27383 12.8964 2.34227 8.81524 2.34227V13.7187H8.73361ZM157.042 6.60844H163V15.3917H157.042V21.4982H148.471V15.3917H142.513V6.60844H148.471V0.501983H157.042V6.60844Z" fill="#8F9090"/>
</g>
<defs>
<clipPath id="clip0_1526_2822">
<rect width="163" height="22" fill="white"/>
</clipPath>
</defs>
</svg>
