<svg width="113" height="26" viewBox="0 0 113 26" fill="none" xmlns="http://www.w3.org/2000/svg">
<g clip-path="url(#clip0_1526_2838)">
<path fill-rule="evenodd" clip-rule="evenodd" d="M8.64319 3.24465V14.6436H14.0079V3.24465H8.64319ZM22.6937 25.9999H14.0505L11.1127 17.8456H8.68577L8.64319 25.9999H0V0H18.6489C19.8836 0 20.8629 0.384235 21.5867 1.11001C22.3105 1.83579 22.6511 2.81773 22.6511 4.05582V13.7898C22.6511 14.8571 22.3531 15.711 21.8422 16.394C21.2887 17.0771 20.5648 17.5467 19.6707 17.7175L22.6937 25.9999ZM33.0827 23.1396H37.383V13.8752H33.0827V23.1396ZM45.345 26H29.123C27.8883 26 26.909 25.6158 26.1852 24.89C25.4614 24.1642 25.0782 23.1823 25.0782 21.9442V14.2168C25.0782 13.2775 25.3762 12.4664 25.9723 11.8687C26.5684 11.271 27.3348 10.9721 28.3141 10.9721H37.383V8.06902H29.0805V5.20861H42.1517C43.0884 5.20861 43.8548 5.50745 44.4509 6.10515C45.047 6.70285 45.345 7.47132 45.345 8.45325V26ZM56.1171 23.1395V8.06894H60.4174V23.1395H56.1171ZM52.1148 25.9999H68.4219V0H60.4599V5.20852H51.3058C50.3265 5.20852 49.5601 5.50737 48.9641 6.10507C48.368 6.70277 48.0699 7.51393 48.0699 8.45317V21.9441C48.0699 23.1822 48.4531 24.1641 49.177 24.8899C49.9008 25.6157 50.88 25.9999 52.1148 25.9999ZM106.273 14.4729L112.446 26H104.485L101.291 19.9376L96.8632 26H93.2867L99.7159 17.0772L93.3719 5.20861H101.334L104.74 11.6125L109.338 5.20861H113L106.273 14.4729ZM83.3237 23.1396H79.0234V13.8752H83.3237V23.1396ZM75.0637 26H91.2857V8.45325C91.2857 7.47132 90.9876 6.70285 90.3915 6.10515C89.7954 5.50745 89.0291 5.20861 88.0924 5.20861H75.0211V8.06902H83.3237V10.9721H74.2547C73.2755 10.9721 72.5091 11.271 71.913 11.8687C71.3169 12.4664 71.0189 13.2775 71.0189 14.2168V21.9442C71.0189 23.1823 71.4021 24.1642 72.1259 24.89C72.8497 25.6158 73.829 26 75.0637 26Z" fill="#8F9090"/>
</g>
<defs>
<clipPath id="clip0_1526_2838">
<rect width="113" height="26" fill="white"/>
</clipPath>
</defs>
</svg>
