<svg width="104" height="34" viewBox="0 0 104 34" fill="none" xmlns="http://www.w3.org/2000/svg">
<g clip-path="url(#clip0_1526_2774)">
<path fill-rule="evenodd" clip-rule="evenodd" d="M41.5999 0.635157C42.5851 1.04614 43.2785 1.83076 43.6799 2.72746C44.0813 3.5868 44.2637 4.55823 44.2637 5.52965C44.2637 7.17361 43.6434 8.7802 42.3662 9.75163C41.8188 10.1626 41.1985 10.4615 40.5051 10.6483C39.8118 10.7978 39.009 10.9099 38.2792 10.9099H37.9872H37.5129C37.4399 10.9099 37.3578 10.9005 37.2757 10.8912C37.1936 10.8818 37.1115 10.8725 37.0385 10.8725H36.929V14.534H33.6813V0.373626L33.8272 0.336261C34.4111 0.224173 35.068 0.149443 35.7613 0.0747183C36.4546 0.0373557 37.3304 0 38.0237 0C38.3886 0 38.79 0.0373557 39.1915 0.0747183C39.6293 0.112081 40.0672 0.186806 40.4686 0.261531C40.87 0.373619 41.235 0.485706 41.5999 0.635157ZM37.6223 7.95822C38.0237 7.99558 38.4981 7.99558 38.8995 7.92085C39.4104 7.84613 40.9795 7.5846 40.9795 5.60438C40.9795 3.5329 39.6906 3.24304 39.2929 3.15361C39.2674 3.14787 39.2455 3.14296 39.2279 3.13845C38.936 3.06373 38.6076 3.02637 38.2427 3.02637C38.0862 3.02637 37.9298 3.0371 37.7846 3.04705C37.6588 3.05568 37.5415 3.06372 37.4399 3.06372C37.2939 3.06372 36.9655 3.10109 36.9655 3.10109V7.92085C36.9655 7.92085 37.5129 7.95822 37.6223 7.95822ZM0 29.1801V0.149414H25.2519V29.1801L12.6259 33.9252L0 29.1801ZM20.1796 9.11643C19.8512 9.00434 19.4863 8.89225 19.0849 8.78016C17.4063 8.36918 15.8007 8.33181 14.487 8.66807C14.9979 9.0417 15.5452 9.6395 15.9831 10.4241C17.1509 10.312 18.428 10.4988 19.7052 11.0219C19.8224 11.0733 19.9319 11.1247 20.0337 11.1725C20.1538 11.229 20.2633 11.2804 20.3621 11.3208L21.1284 9.56478L21.0554 9.52742C20.8 9.37797 20.508 9.22851 20.1796 9.11643ZM7.0428 10.4241H7.15227C7.27318 10.4241 7.41912 10.3985 7.59009 10.3684L7.59012 10.3684C7.62555 10.3622 7.66206 10.3558 7.69964 10.3494C8.24701 10.2747 8.94034 10.1999 8.97683 10.1999H9.63367H9.96209C10.6189 10.1999 11.2393 10.4241 11.4947 10.5362C11.8961 10.6856 12.261 10.9098 12.553 11.2087C12.8449 11.4703 13.0638 11.8065 13.2098 12.2175C13.3558 12.5911 13.4288 13.0395 13.4288 13.4878C13.4288 14.0109 13.3558 14.4966 13.1733 14.945C12.9909 15.356 12.7719 15.767 12.4435 16.0659L12.334 16.1779L12.3357 16.1863C12.3757 16.3921 12.5617 17.3467 13.1733 18.0834L13.1734 18.0834C13.3923 17.934 13.6112 17.7845 13.8302 17.5977C14.3775 17.1494 14.7789 16.5516 15.1073 15.879C15.4358 15.2065 15.5817 14.3846 15.5817 13.4878C15.5817 12.7032 15.4358 11.956 15.1803 11.3208C14.9249 10.6857 14.5235 10.1252 14.0491 9.71423C13.5747 9.30324 12.9909 8.96698 12.2975 8.7428C11.7137 8.55599 10.6919 8.33181 9.81612 8.33181C8.42946 8.33181 7.15227 8.4439 6.60491 8.55599H6.42245C6.13052 8.55599 5.36421 8.63072 4.78035 8.78016L4.67087 8.81753V22.156H6.78736V18.4571C7.15227 18.5692 7.8821 18.756 8.86736 18.9054C8.48625 18.0186 8.3354 17.2328 8.28989 16.9957L8.2835 16.9626C7.81018 16.8818 7.41266 16.7816 7.10459 16.704C6.98513 16.6739 6.87913 16.6472 6.78736 16.6263V10.4615C6.82385 10.4615 6.86947 10.4521 6.91508 10.4428C6.96069 10.4335 7.00631 10.4241 7.0428 10.4241ZM21.2014 21.1472L21.2379 21.1098H21.2744V15.2439H17.2238L16.421 16.9999L19.3768 16.9626V19.8768L19.3038 19.9516C19.2795 19.964 19.2592 19.9765 19.239 19.9889L19.239 19.9889C19.1984 20.0138 19.1579 20.0387 19.0849 20.0636C18.9024 20.1384 18.647 20.2131 18.3916 20.2878C18.1361 20.3626 17.8807 20.3999 17.5887 20.4373C15.9102 20.6614 13.6477 20.3252 12.407 18.6439C11.2758 17.1494 11.0568 14.7582 11.8596 13.1142C11.9691 12.8527 12.1151 12.6285 12.2975 12.4043C11.8231 11.545 10.9474 11.3955 10.6189 11.3582C9.77964 12.5538 9.26876 14.0109 9.26876 15.4307C9.26876 18.4197 10.7284 20.8109 13.1733 21.8944C14.0856 22.3054 15.1803 22.4922 16.3116 22.4922C17.2603 22.4922 18.2456 22.3801 19.2308 22.0812C19.6323 21.9691 20.0337 21.8197 20.3621 21.6702C20.4198 21.6374 20.4763 21.6058 20.5316 21.5749L20.5338 21.5736L20.5339 21.5736C20.7922 21.429 21.0214 21.3007 21.2014 21.1472ZM40.9797 25.8175L39.812 28.4703H43.0232V30.5252C42.8773 30.5999 42.7313 30.6746 42.5489 30.712C42.3569 30.7775 42.1368 30.8143 41.9379 30.8476L41.9378 30.8476L41.8555 30.8615C41.6366 30.8988 41.3811 30.9362 41.1622 30.9362C41.0417 30.9362 40.9211 30.9475 40.8128 30.9577C40.7243 30.966 40.644 30.9736 40.5783 30.9736C39.9945 30.9736 39.4471 30.9362 38.9362 30.8241C38.4619 30.712 38.024 30.5626 37.659 30.301C37.1117 29.9648 36.6738 29.479 36.3454 28.8439C36.0169 28.2087 35.871 27.4615 35.871 26.5648C35.871 25.8175 35.9805 25.145 36.1994 24.5472C36.4184 23.9868 36.7468 23.501 37.1482 23.1274C37.3671 22.9406 37.5861 22.7538 37.878 22.6043C38.1334 22.4549 38.4254 22.3428 38.7173 22.2681C39.0092 22.1934 39.3376 22.1186 39.6296 22.0813C40.5783 21.9692 41.5636 22.0439 42.5124 22.3054C43.1692 22.4922 43.7531 22.7164 44.3369 22.978L44.5194 23.0527L45.4682 20.1384L45.3222 20.0637C44.5559 19.6901 43.7531 19.4659 42.8773 19.2791C42.0015 19.1296 41.1257 19.0549 40.2864 19.0549C39.812 19.0549 39.3012 19.0923 38.7538 19.167C38.2429 19.2417 37.6955 19.3538 37.1847 19.5406C36.6738 19.7274 36.1629 19.9516 35.6885 20.2505C35.2141 20.5494 34.7762 20.923 34.3748 21.3714C34.1194 21.6702 33.864 22.0065 33.6086 22.3427L33.6085 22.3428L33.6085 22.3429C33.3895 22.7165 33.1706 23.0901 32.9882 23.5384C32.8057 23.9494 32.6962 24.4351 32.5868 24.9208C32.4773 25.4065 32.4408 25.9296 32.4408 26.49C32.4408 27.6483 32.6233 28.6944 32.9517 29.5911C33.2801 30.4878 33.791 31.2725 34.4843 31.945C34.8857 32.3186 35.2871 32.6549 35.7615 32.9164C36.2359 33.1779 36.7103 33.4021 37.2211 33.5516C37.732 33.701 38.2429 33.8131 38.7538 33.8878C39.2647 33.9626 39.812 33.9999 40.2864 33.9999C40.6513 33.9999 41.0162 33.9999 41.4541 33.9626C41.8331 33.9302 42.212 33.8699 42.6145 33.8058L42.6147 33.8058L42.8043 33.7757L42.8043 33.7757C43.2787 33.6636 43.7531 33.5516 44.2275 33.3648L44.2937 33.3387C44.7554 33.1571 45.3076 32.94 45.7601 32.6549L45.8331 32.6175V25.9296H40.9797V25.8175ZM98.2708 19.4659C98.6722 19.5779 99.0371 19.69 99.402 19.8395C100.424 20.2505 101.081 20.9977 101.482 21.8944C101.883 22.7164 102.066 23.7252 102.066 24.6966C102.066 26.3406 101.446 27.9472 100.168 28.9186C99.621 29.3296 99.0006 29.6285 98.3073 29.8153C97.614 29.9647 96.8112 30.0768 96.0813 30.0768H95.7894H95.315C95.242 30.0768 95.1599 30.0675 95.0778 30.0581C94.9957 30.0488 94.9136 30.0395 94.8406 30.0395H94.7312V33.701H91.4835V19.5779L91.6294 19.5406C92.2133 19.4285 92.8701 19.3538 93.5634 19.279C94.2568 19.2417 95.1326 19.2043 95.8259 19.2043C96.1908 19.2043 96.5921 19.2417 96.9935 19.279L96.9936 19.279C97.4315 19.3164 97.8694 19.3911 98.2708 19.4659ZM95.4245 27.1625C95.8259 27.1999 96.3003 27.1999 96.7017 27.1252C96.7268 27.1197 96.7546 27.1139 96.7845 27.1076L96.7853 27.1075C97.3645 26.9865 98.7817 26.6906 98.7817 24.8087C98.7817 22.7372 97.4927 22.4474 97.0951 22.3579C97.0695 22.3522 97.0477 22.3473 97.0301 22.3428C96.7382 22.268 96.4098 22.2307 96.0448 22.2307C95.8884 22.2307 95.732 22.2414 95.5868 22.2514L95.5867 22.2514C95.4609 22.26 95.3436 22.268 95.242 22.268C95.0961 22.268 94.7677 22.3054 94.7677 22.3054V27.1252C94.7677 27.1252 95.315 27.1625 95.4245 27.1625ZM52.146 14.8329C53.2407 14.8329 54.226 14.6461 55.1017 14.3099C55.9775 13.9362 56.7074 13.4505 57.3277 12.778C57.9481 12.1428 58.386 11.3209 58.7144 10.4241C59.0428 9.52745 59.1888 8.51866 59.1888 7.39778C59.1888 6.31427 59.0428 5.30548 58.7144 4.40878C58.386 3.51208 57.9481 2.72747 57.3277 2.05494C56.7074 1.41978 55.9775 0.896699 55.1017 0.523073C54.226 0.149448 53.2407 0 52.146 0C51.0877 0 50.139 0.186808 49.2997 0.485709C48.4604 0.821972 47.694 1.30768 47.0737 1.94285C46.4533 2.57801 45.979 3.36263 45.6505 4.29669C45.3221 5.23076 45.1397 6.27691 45.1397 7.43515C45.1397 8.59338 45.3221 9.63953 45.6505 10.5736C45.979 11.5077 46.4533 12.2923 47.0737 12.9274C47.694 13.5626 48.4239 14.0483 49.2997 14.3846C50.139 14.6461 51.1242 14.8329 52.146 14.8329ZM48.5698 7.36042C48.5698 6.5758 48.6428 5.90328 48.8253 5.34284C49.0077 4.7824 49.2267 4.33406 49.5551 3.96043C49.8835 3.58681 50.2484 3.32527 50.6863 3.17582C51.1242 2.989 51.6351 2.91427 52.1825 2.91427C52.8028 2.91427 53.3502 3.02636 53.7881 3.25054C54.226 3.47471 54.6274 3.77361 54.9193 4.1846C55.2112 4.55822 55.4302 5.04394 55.5761 5.60438C55.7221 6.16482 55.7951 6.76262 55.7951 7.39778C55.7951 8.03294 55.7221 8.63075 55.5761 9.19119C55.4302 9.75163 55.2112 10.2 54.9193 10.611C54.6274 10.9846 54.2624 11.3209 53.7881 11.545C53.3502 11.7692 52.8028 11.8813 52.1825 11.8813C51.6351 11.8813 51.1242 11.8066 50.6863 11.6198C50.2484 11.4329 49.8835 11.1714 49.5551 10.8351C49.2267 10.4615 49.0077 10.0132 48.8253 9.45272C48.6428 8.81756 48.5698 8.14503 48.5698 7.36042ZM64.4799 11.545H68.6398L67.3627 14.534H61.2321V0.149414H64.4799V11.545ZM71.8876 14.534L73.1283 11.5824H78.529L79.7697 14.534H83.2364L77.1059 0.149414H74.7339L68.6034 14.534H71.8876ZM75.8287 4.81973L76.3031 6.2395L77.3978 8.89225H74.2596L75.3543 6.27687L75.8287 4.81973ZM84.7689 0.149414H88.0167V14.534H84.7689V0.149414ZM94.4393 8.92968L96.0084 9.11649L99.986 14.5341H104L99.6211 8.92968L99.1467 8.44397C99.1814 8.43065 99.2166 8.41732 99.2521 8.40387C99.5156 8.30418 99.7974 8.19759 100.022 8.03298C100.387 7.80881 100.716 7.5099 101.008 7.17364C101.3 6.83737 101.519 6.42639 101.665 5.94068C101.811 5.45496 101.92 4.93189 101.92 4.33409C101.92 3.54948 101.774 2.87694 101.446 2.31651C101.117 1.75607 100.716 1.30773 100.168 0.971463C99.8765 0.78465 99.5846 0.635195 99.2561 0.523108C98.9277 0.41102 98.5628 0.298937 98.1979 0.224212C97.833 0.149487 97.4681 0.112115 97.0667 0.0747525C96.7019 0.037399 96.337 0.037399 95.9722 0.037399H95.9719H95.9717C95.6798 0.037399 95.315 0.037399 94.9137 0.0747525C94.5434 0.0747525 94.1731 0.106553 93.7742 0.140813L93.673 0.149482C93.2351 0.186845 92.8337 0.224203 92.4323 0.261565C92.0309 0.298928 91.666 0.336299 91.3376 0.411025L91.1916 0.448378V14.5341H94.4393V8.92968ZM97.7965 6.42639C97.5411 6.57584 97.2491 6.68793 96.8842 6.72529C96.5193 6.80001 96.1545 6.80001 95.8261 6.80001H95.826H94.4393V3.3253H94.6218C94.7677 3.3253 94.9137 3.3253 95.0597 3.28793H95.5705C96.1179 3.28793 96.6288 3.28794 97.0667 3.36266C97.3586 3.40003 97.6505 3.51211 97.8695 3.66156C98.0884 3.81101 98.2344 3.96046 98.3804 4.222C98.4898 4.44617 98.5628 4.70771 98.5628 4.93188C98.5628 5.34287 98.4898 5.64177 98.3804 5.90331C98.1979 6.09013 98.0154 6.27694 97.7965 6.42639ZM56.5206 27.5709C56.4851 27.5843 56.4499 27.5976 56.4153 27.6109L56.8897 28.134L61.2686 33.7383H57.2546L53.2771 28.3208L51.7079 28.134V33.7383H48.4602V19.6153L48.6062 19.5779C48.9346 19.5032 49.2995 19.4659 49.7009 19.4285L49.7031 19.4283C50.1038 19.391 50.5045 19.3537 50.9416 19.3164L51.0424 19.3078L51.0425 19.3078C51.4416 19.2735 51.8119 19.2417 52.1823 19.2417C52.5837 19.2043 52.9486 19.2043 53.2406 19.2043C53.6055 19.2043 53.9704 19.2043 54.3353 19.2417C54.7367 19.279 55.1016 19.3164 55.4665 19.3911C55.8314 19.4659 56.1963 19.5779 56.5248 19.69C56.8532 19.8021 57.1451 19.9516 57.437 20.1384C57.9844 20.4746 58.3858 20.923 58.7142 21.4834C59.0427 22.0439 59.1886 22.7164 59.1886 23.501C59.1886 24.0988 59.0792 24.6219 58.9332 25.1076C58.7872 25.5933 58.5683 26.0043 58.2763 26.3406C57.9844 26.6768 57.656 26.9757 57.2911 27.1999C57.066 27.3645 56.7843 27.4711 56.5207 27.5708L56.5206 27.5709ZM55.576 24.7713C55.6855 24.5098 55.7584 24.2109 55.7584 23.7999C55.7584 23.5384 55.6855 23.3142 55.6125 23.1274C55.4665 22.8658 55.3206 22.7164 55.1016 22.5669C54.8827 22.4175 54.5907 22.3054 54.2988 22.268C53.8609 22.1933 53.35 22.1933 52.8027 22.1933H52.2918C52.1458 22.2307 51.9999 22.2307 51.8539 22.2307H51.6714V25.7054H53.0581H53.0582C53.3866 25.7054 53.7515 25.7054 54.1163 25.6307C54.4813 25.5933 54.7732 25.4812 55.0286 25.3318C55.2476 25.1823 55.43 24.9955 55.576 24.7713ZM73.0553 21.1846C72.4349 20.5495 71.7051 20.0264 70.8293 19.6528C69.9535 19.2792 68.9683 19.1297 67.8735 19.1297C66.8153 19.1297 65.8665 19.3165 65.0272 19.6154C64.1879 19.9517 63.4216 20.4374 62.8013 21.0726C62.1809 21.7077 61.7065 22.4923 61.3781 23.4264C61.0497 24.3605 60.8672 25.4066 60.8672 26.5649C60.8672 27.7231 61.0497 28.7692 61.3781 29.7033C61.7065 30.6374 62.1809 31.422 62.8013 32.0571C63.4216 32.6923 64.1514 33.178 65.0272 33.5143C65.8665 33.8505 66.8518 34 67.8735 34C68.9683 34 69.9535 33.8132 70.8293 33.4769C71.7051 33.1033 72.4349 32.6176 73.0553 31.9451C73.6756 31.2725 74.1135 30.4879 74.4419 29.5912C74.7704 28.6945 74.9163 27.6857 74.9163 26.5649C74.9163 25.4813 74.7704 24.4726 74.4419 23.5758C74.1135 22.6418 73.6756 21.8198 73.0553 21.1846ZM71.4861 26.5275C71.4861 27.1627 71.4132 27.7604 71.2672 28.3209C71.1212 28.8813 70.9023 29.3297 70.6104 29.7407C70.3184 30.1143 69.9535 30.4506 69.4791 30.6747C69.0412 30.8989 68.4939 31.011 67.8735 31.011C67.3262 31.011 66.8153 30.9363 66.3774 30.7495C65.9395 30.5626 65.5746 30.3011 65.2462 29.9648C64.9177 29.5912 64.6988 29.1429 64.5163 28.5824C64.3339 28.022 64.2609 27.3495 64.2609 26.5649C64.2609 25.7802 64.3339 25.1077 64.5163 24.5473C64.6988 23.9868 64.9177 23.5385 65.2462 23.1649C65.5381 22.7912 65.9395 22.5297 66.3774 22.3802C66.8153 22.1934 67.3262 22.1187 67.8735 22.1187C68.4939 22.1187 69.0412 22.2308 69.4791 22.455C69.917 22.6791 70.3184 22.9781 70.6104 23.389C70.9023 23.7627 71.1212 24.2484 71.2672 24.8088C71.4132 25.2945 71.4861 25.8923 71.4861 26.5275ZM85.3895 29.5537C85.499 29.2175 85.572 28.8065 85.572 28.3208V19.3911H88.6737V28.4702C88.6737 29.4043 88.5277 30.2263 88.2358 30.8988C87.9804 31.6087 87.579 32.1691 87.0681 32.6175C86.5572 33.0658 85.9734 33.4021 85.28 33.6263C84.5867 33.8131 83.8569 33.9252 83.0906 33.9252C82.1783 33.9252 81.339 33.8504 80.6091 33.6263C79.8428 33.4021 79.2225 33.0658 78.7116 32.6548C78.2007 32.2438 77.7993 31.6834 77.5439 31.0482C77.2885 30.4131 77.1425 29.6658 77.1425 28.8438V19.3911H80.3902V28.3208C80.3902 29.2175 80.6092 29.9274 81.0106 30.3383C81.412 30.7493 82.1053 30.9735 83.0541 30.9735C83.4555 30.9735 83.8204 30.9362 84.1488 30.8241C84.4407 30.7493 84.6962 30.5999 84.9151 30.3757C85.1341 30.1515 85.28 29.89 85.3895 29.5537Z" fill="#003154"/>
</g>
<defs>
<clipPath id="clip0_1526_2774">
<rect width="104" height="34" fill="white"/>
</clipPath>
</defs>
</svg>
