<svg width="125" height="24" viewBox="0 0 125 24" fill="none" xmlns="http://www.w3.org/2000/svg">
<g clip-path="url(#clip0_1526_2809)">
<path fill-rule="evenodd" clip-rule="evenodd" d="M17.2437 24H0V0H17.2772C21.1017 0 24.1881 3.06667 24.1881 6.86667V17.1333C24.1546 20.9333 21.0681 24 17.2437 24ZM9.39344 14.6667H13.654C14.2914 14.6667 14.7947 14.1667 14.7947 13.5333V10.4333C14.7947 9.8 14.2914 9.3 13.654 9.3H9.39344V14.6667ZM33.4472 0C29.6228 0 26.5363 3.06667 26.5363 6.83333V24H35.9298V21.1333H41.331V24H50.7245V0H33.4472ZM35.9298 12.5667V10.4C35.9298 9.8 36.433 9.3 37.0369 9.3H41.2975V12.5667H35.9298ZM60.7219 9.3L52.8381 24H77.2946V14.7H69.6792L77.563 0H53.14V9.3H60.7219ZM78.0997 24L85.9835 9.3H78.4016V0H102.825L94.9408 14.7H102.556V24H78.0997ZM125 24V14.7H116.445V0H104.972V24H125Z" fill="#8F9090"/>
</g>
<defs>
<clipPath id="clip0_1526_2809">
<rect width="125" height="24" fill="white"/>
</clipPath>
</defs>
</svg>
