<svg width="159" height="22" viewBox="0 0 159 22" fill="none" xmlns="http://www.w3.org/2000/svg">
<g clip-path="url(#clip0_1526_2794)">
<path fill-rule="evenodd" clip-rule="evenodd" d="M24.4844 8.91848L28.2128 0H21.5519C18.2425 0.0441509 14.3884 0.176598 10.8694 1.45697C2.70048 4.41508 0.731553 9.40413 0.228848 11.4351C-0.650887 15.1437 1.06669 19.0732 4.33428 20.7951C7.22483 22.2962 10.5343 22.1196 12.7965 21.7222C15.7708 21.1924 18.1587 20.1328 19.8763 18.5875C19.8828 18.5807 19.9106 18.5556 19.9533 18.5172C20.1848 18.3088 20.8528 17.7074 20.9236 17.4837L21.2587 16.2034C18.7871 17.1747 16.6925 17.6604 14.7654 17.7487C13.4668 17.7928 11.037 17.6604 9.69647 15.9826C7.55997 13.3777 9.44511 9.49243 11.1208 7.6381C13.0059 5.563 16.5668 4.10603 20.5465 3.70867L18.3681 8.91848H24.4844ZM80.7035 10.4196C79.6562 10.1106 78.5251 10.1105 77.4359 10.1105H75.3413L73.8332 13.6868H77.1427C76.5143 15.9385 75.3413 17.263 73.4562 17.7487C71.6967 18.1902 70.1467 18.0135 70.1467 18.0135L76.4724 2.20754H70.0629C70.0629 2.20754 64.8264 15.0554 64.2399 16.689C63.1088 19.8237 65.748 21.4132 68.3872 21.5898C68.6806 21.6083 68.9271 21.6243 69.1392 21.638C70.4408 21.7222 70.4409 21.7222 71.9899 21.7222C78.0643 21.7222 83.4684 17.3513 83.5103 13.8192C83.5522 12.0973 82.4211 10.9053 80.7035 10.4196ZM103.66 14.04C103.577 13.157 103.242 12.3181 102.655 11.6559C101.985 10.8611 100.644 9.97814 98.1307 9.97814H96.3712C96.1097 9.97814 95.8555 9.97754 95.6081 9.97696C92.8442 9.97048 90.9311 9.966 89.1239 10.817C86.4847 12.0532 84.1806 14.3932 84.4739 17.7045C84.5996 18.9849 85.3117 20.177 86.359 20.8393C87.4482 21.5015 88.8726 21.8106 90.0874 21.8106H91.9307C92.1935 21.8106 92.4474 21.8112 92.6933 21.8117C95.4265 21.8182 97.1656 21.8223 99.0104 20.9717C100.602 20.2211 102.152 19.0732 102.99 17.3955C103.535 16.38 103.786 15.1879 103.66 14.04ZM97.0834 16.2917C96.6645 16.954 96.0361 17.4838 95.3658 17.7487C94.3604 18.1902 93.2712 18.2785 92.182 18.2785H90.4645V17.6604C90.4645 16.5566 90.632 16.071 91.0091 15.4528C91.8888 14.1283 93.3131 13.6427 94.7794 13.5102L94.8841 13.4991L94.8841 13.4991L94.8842 13.4991C95.262 13.4589 95.6105 13.4219 95.9942 13.4219H97.4604C97.4604 13.4219 97.4604 14.4815 97.4185 14.923C97.5023 15.4528 97.3348 15.8943 97.0834 16.2917ZM129.717 21.634C129.131 21.634 128.586 21.4132 128.042 20.9717C127.497 20.5302 127.288 20.0445 127.288 19.4706C127.288 19.3381 127.33 19.1615 127.371 18.9849C127.497 18.5875 129.005 15.0113 129.005 15.0113L122.093 20.0445C120.417 21.2366 118.993 21.8547 117.82 21.8547C116.731 21.8547 116.019 21.6781 115.6 21.2366C115.348 20.9717 115.223 20.6626 115.223 20.2211C115.223 19.8679 115.307 19.4706 115.516 19.0291L117.234 15.0113L108.646 21.634H103.242L108.017 10.1547H114.385L111.997 15.806L118.113 11.7C119.58 10.6404 121.088 10.1547 123.015 10.1547H125.905C125.78 10.4859 125.418 11.3636 125.192 11.912C125.117 12.0947 125.057 12.2409 125.025 12.3181L123.476 16.0268L129.801 11.6559C131.226 10.5962 132.817 10.0664 134.535 10.0664C135.499 10.0664 137.007 10.1547 137.426 10.1989L132.859 21.634H129.717ZM39.314 21.6339L44.1316 10.1547H35.0829C34.8234 10.1547 34.5691 10.1541 34.32 10.1535L34.3192 10.1535C31.5122 10.1471 29.3506 10.1421 27.5423 10.9936C24.9031 12.2298 22.6409 14.5698 22.9342 17.8811C23.018 18.7641 23.4369 19.6471 23.9815 20.3536C24.8612 21.4573 26.7464 21.943 28.0869 21.9871C30.1396 21.9871 32.8626 21.1924 34.1194 19.5147C33.9518 20.3536 34.4545 21.06 35.041 21.369C35.6425 21.686 36.3451 21.683 37.2701 21.679H37.2707H37.2713C37.3767 21.6785 37.4851 21.6781 37.5964 21.6781C37.5546 21.6339 39.2302 21.6339 39.314 21.6339ZM34.4545 18.0577C31.2288 19.1173 29.4694 18.4992 29.1342 17.572C28.841 16.8656 29.0923 16.2034 29.4694 15.6294C30.4329 14.2166 31.8572 13.6426 34.4126 13.6426H36.2978L34.4545 18.0577ZM52.3009 14.9671L58.2077 10.1547H64.5334L62.1456 15.9385H56.155L56.9928 13.9517L50.8766 19.1615L49.6617 21.6339H43.2941L47.9441 10.1547H54.2699L52.3009 14.9671ZM159 10.1547L154.182 21.6339C154.099 21.6339 152.381 21.6339 152.465 21.6781C152.353 21.6781 152.244 21.6785 152.138 21.679C151.213 21.683 150.511 21.686 149.909 21.369C149.323 21.06 148.82 20.3536 148.988 19.5147C147.731 21.1924 145.008 21.9871 142.955 21.9871C141.615 21.943 139.73 21.4573 138.85 20.3536C138.305 19.6471 137.886 18.7641 137.802 17.8811C137.509 14.5698 139.771 12.2298 142.411 10.9936C144.219 10.1421 146.38 10.1471 149.187 10.1535C149.437 10.1541 149.691 10.1547 149.951 10.1547H159ZM144.003 17.572C144.338 18.4992 146.097 19.1173 149.323 18.0577L151.166 13.6426H149.281C146.725 13.6426 145.301 14.2166 144.338 15.6294C143.961 16.2034 143.709 16.8656 144.003 17.572Z" fill="#8F9090"/>
</g>
<defs>
<clipPath id="clip0_1526_2794">
<rect width="159" height="22" fill="white"/>
</clipPath>
</defs>
</svg>
